<svg width="101" height="101" viewBox="0 0 101 101" fill="none" xmlns="http://www.w3.org/2000/svg">
<circle cx="50.6726" cy="50.3269" r="50.3269" fill="#48D5E5"/>
<path d="M60.7054 38.683H69.6232C67.3993 35.2991 64.1406 32.7204 60.3308 31.3295C56.521 29.9386 52.3631 29.8096 48.474 30.9616C44.5848 32.1136 41.1717 34.4852 38.7411 37.7246C36.3104 40.964 34.9917 44.8985 34.9807 48.9443H31.5508C31.5531 44.3732 32.9683 39.9139 35.6035 36.1738C38.2388 32.4336 41.966 29.5943 46.2777 28.0427C50.5893 26.4911 55.2758 26.3025 59.6988 27.5026C64.1218 28.7027 68.0663 31.2332 70.9952 34.7494V28.4216H74.4252V42.1034H60.7054V38.683Z" fill="white"/>
<path d="M50.4147 43.813C51.4323 43.813 52.427 44.1139 53.2731 44.6777C54.1191 45.2415 54.7786 46.0428 55.168 46.9803C55.5574 47.9178 55.6593 48.9494 55.4608 49.9447C55.2622 50.9399 54.7722 51.8541 54.0527 52.5717C53.3332 53.2892 52.4164 53.7779 51.4184 53.9758C50.4204 54.1738 49.3859 54.0722 48.4458 53.6839C47.5057 53.2955 46.7022 52.6379 46.1369 51.7942C45.5715 50.9504 45.2698 49.9585 45.2698 48.9437C45.2582 48.2668 45.3833 47.5944 45.6378 46.9667C45.8922 46.339 46.2708 45.7687 46.7508 45.29C47.2309 44.8112 47.8027 44.4337 48.4322 44.18C49.0616 43.9263 49.7359 43.8015 50.4147 43.813V43.813ZM50.4147 40.3926C48.7188 40.3926 47.0609 40.8941 45.6508 41.8337C44.2406 42.7733 43.1416 44.1088 42.4926 45.6713C41.8436 47.2339 41.6737 48.9532 42.0046 50.612C42.3355 52.2707 43.1522 53.7944 44.3514 54.9903C45.5506 56.1862 47.0785 57.0006 48.7418 57.3306C50.4052 57.6605 52.1293 57.4912 53.6962 56.844C55.263 56.1967 56.6022 55.1007 57.5444 53.6945C58.4867 52.2883 58.9896 50.635 58.9896 48.9437C58.9896 46.6758 58.0861 44.5008 56.478 42.8972C54.8699 41.2935 52.6889 40.3926 50.4147 40.3926Z" fill="white"/>
<path d="M62.4197 74.5977H58.9897V69.467C58.9897 68.1063 58.4477 66.8013 57.4828 65.8391C56.518 64.877 55.2094 64.3364 53.8448 64.3364H46.985C45.6205 64.3364 44.3118 64.877 43.347 65.8391C42.3821 66.8013 41.8401 68.1063 41.8401 69.467V74.5977H38.4102V69.467C38.4102 67.1992 39.3136 65.0242 40.9217 63.4206C42.5298 61.8169 44.7108 60.916 46.985 60.916H53.8448C54.9709 60.916 56.0859 61.1372 57.1263 61.5669C58.1666 61.9967 59.1119 62.6265 59.9082 63.4206C60.7044 64.2146 61.336 65.1572 61.767 66.1947C62.1979 67.2322 62.4197 68.3441 62.4197 69.467V74.5977Z" fill="white"/>
</svg>
