<svg width="44" height="49" viewBox="0 0 44 49" fill="none" xmlns="http://www.w3.org/2000/svg">
<path d="M29.7054 12.683H38.6232C36.3993 9.29913 33.1406 6.72045 29.3308 5.32954C25.521 3.93862 21.3631 3.80959 17.474 4.96159C13.5848 6.11358 10.1717 8.48522 7.74105 11.7246C5.31041 14.964 3.99175 18.8985 3.98073 22.9443H0.550781C0.553116 18.3732 1.96828 13.9139 4.60353 10.1738C7.23879 6.43359 10.966 3.59435 15.2777 2.04271C19.5893 0.491077 24.2758 0.302471 28.6988 1.50258C33.1217 2.70269 37.0663 5.23318 39.9952 8.74942V2.42156H43.4252V16.1034H29.7054V12.683Z" fill="white"/>
<path d="M19.4147 17.813C20.4323 17.813 21.427 18.1139 22.2731 18.6777C23.1191 19.2415 23.7786 20.0428 24.168 20.9803C24.5574 21.9178 24.6593 22.9494 24.4608 23.9447C24.2622 24.9399 23.7722 25.8541 23.0527 26.5717C22.3332 27.2892 21.4164 27.7779 20.4184 27.9758C19.4204 28.1738 18.3859 28.0722 17.4458 27.6839C16.5057 27.2955 15.7022 26.6379 15.1369 25.7942C14.5715 24.9504 14.2698 23.9585 14.2698 22.9437C14.2582 22.2668 14.3833 21.5944 14.6378 20.9667C14.8922 20.339 15.2708 19.7687 15.7508 19.29C16.2309 18.8112 16.8027 18.4337 17.4322 18.18C18.0616 17.9263 18.7359 17.8015 19.4147 17.813ZM19.4147 14.3926C17.7188 14.3926 16.0609 14.8941 14.6508 15.8337C13.2406 16.7733 12.1416 18.1088 11.4926 19.6713C10.8436 21.2339 10.6737 22.9532 11.0046 24.612C11.3355 26.2707 12.1522 27.7944 13.3514 28.9903C14.5506 30.1862 16.0785 31.0006 17.7418 31.3306C19.4052 31.6605 21.1293 31.4912 22.6962 30.844C24.263 30.1967 25.6022 29.1007 26.5444 27.6945C27.4867 26.2883 27.9896 24.635 27.9896 22.9437C27.9896 20.6758 27.0861 18.5008 25.478 16.8972C23.8699 15.2935 21.6889 14.3926 19.4147 14.3926Z" fill="white"/>
<path d="M31.4197 48.5977H27.9897V43.467C27.9897 42.1063 27.4477 40.8013 26.4828 39.8391C25.518 38.877 24.2094 38.3364 22.8448 38.3364H15.985C14.6205 38.3364 13.3118 38.877 12.347 39.8391C11.3821 40.8013 10.8401 42.1063 10.8401 43.467V48.5977H7.41016V43.467C7.41016 41.1992 8.31357 39.0242 9.92167 37.4206C11.5298 35.8169 13.7108 34.916 15.985 34.916H22.8448C23.9709 34.916 25.0859 35.1372 26.1263 35.5669C27.1666 35.9967 28.1119 36.6265 28.9082 37.4206C29.7044 38.2146 30.336 39.1572 30.767 40.1947C31.1979 41.2322 31.4197 42.3441 31.4197 43.467V48.5977Z" fill="white"/>
</svg>
