<svg width="41" height="45" viewBox="0 0 41 45" fill="none" xmlns="http://www.w3.org/2000/svg">
<path d="M37.2727 18.6367C31.2149 18.9881 25.3889 21.088 20.5 24.6824C15.6111 21.088 9.78507 18.9881 3.72728 18.6367V24.1531C2.73709 24.1551 1.78821 24.5502 1.08927 25.2516C0.390321 25.953 -0.00148009 26.9032 4.20196e-06 27.8934V29.7645C4.20196e-06 31.8313 3.72728 33.8794 3.72728 33.8794V37.6197C8.6771 37.9381 13.4507 39.5793 17.5499 42.372C18.5849 43.0902 19.5705 43.8772 20.5 44.7276C21.4295 43.8772 22.4151 43.0902 23.4501 42.372C27.5493 39.5793 32.3229 37.9381 37.2727 37.6197V33.5048C38.2629 33.5028 39.2118 33.1077 39.9107 32.4063C40.6097 31.7049 41.0015 30.7547 41 29.7645V27.8934C41.0015 26.9032 40.6097 25.953 39.9107 25.2516C39.2118 24.5502 38.2629 24.1551 37.2727 24.1531V18.6367ZM20.5 39.9232C16.6348 37.0905 12.1723 35.1805 7.45455 34.3397V22.8784C11.0702 23.6067 14.5029 25.0529 17.5499 27.1312C18.5849 27.8494 19.5705 28.6364 20.5 29.4868C21.4295 28.6364 22.4151 27.8494 23.4501 27.1312C26.4969 25.0522 29.9297 23.6054 33.5455 22.8765V34.3397C28.8277 35.1805 24.3652 37.0905 20.5 39.9232Z" fill="#C4C4C4"/>
<path d="M18.6367 14.9092H22.364V16.7728H18.6367V14.9092Z" fill="#C4C4C4"/>
<path d="M18.6367 7.4541H22.364V9.31774H18.6367V7.4541Z" fill="#C4C4C4"/>
<path d="M18.6367 18.6367H22.364V20.5004H18.6367V18.6367Z" fill="#C4C4C4"/>
<path d="M14.9095 9.31806C15.4037 9.31806 15.8778 9.12171 16.2273 8.77221C16.5768 8.42271 16.7731 7.94869 16.7731 7.45442C16.7748 7.21165 16.7283 6.97095 16.6362 6.74632C16.5441 6.52169 16.4083 6.31761 16.2366 6.14594C16.0649 5.97427 15.8608 5.83844 15.6362 5.74633C15.4116 5.65422 15.1709 5.60769 14.9281 5.60942C14.6846 5.6082 14.4432 5.65495 14.2178 5.74701C13.9923 5.83907 13.7872 5.97463 13.6142 6.14595C13.2647 6.49195 13.0669 6.96263 13.0645 7.45442C13.062 7.94622 13.255 8.41885 13.601 8.76835C13.947 9.11785 14.4177 9.31559 14.9095 9.31806Z" fill="#C4C4C4"/>
<path d="M26.0902 9.31809C27.1195 9.31809 27.9538 8.48371 27.9538 7.45446C27.9538 6.4252 27.1195 5.59082 26.0902 5.59082C25.0609 5.59082 24.2266 6.4252 24.2266 7.45446C24.2266 8.48371 25.0609 9.31809 26.0902 9.31809Z" fill="#C4C4C4"/>
<path d="M27.9551 14.9091H13.046C11.5636 14.9076 10.1424 14.3181 9.09425 13.2699C8.04607 12.2217 7.45656 10.8005 7.45508 9.31818V5.59091C7.45656 4.10856 8.04607 2.68735 9.09425 1.63917C10.1424 0.590996 11.5636 0.00148013 13.046 0L27.9551 0C29.4374 0.00148013 30.8586 0.590996 31.9068 1.63917C32.955 2.68735 33.5445 4.10856 33.546 5.59091V9.31818C33.5445 10.8005 32.955 12.2217 31.9068 13.2699C30.8586 14.3181 29.4374 14.9076 27.9551 14.9091ZM13.046 3.72727C12.5519 3.72777 12.0781 3.92427 11.7287 4.27366C11.3793 4.62306 11.1828 5.09679 11.1824 5.59091V9.31818C11.1828 9.8123 11.3793 10.286 11.7287 10.6354C12.0781 10.9848 12.5519 11.1813 13.046 11.1818H27.9551C28.4492 11.1813 28.9229 10.9848 29.2723 10.6354C29.6217 10.286 29.8182 9.8123 29.8187 9.31818V5.59091C29.8182 5.09679 29.6217 4.62306 29.2723 4.27366C28.9229 3.92427 28.4492 3.72777 27.9551 3.72727H13.046Z" fill="#C4C4C4"/>
</svg>
