<svg width="44" height="51" viewBox="0 0 44 51" fill="none" xmlns="http://www.w3.org/2000/svg">
<path d="M34.2991 19.8084C32.0689 21.3895 29.3245 22.0775 26.6097 21.7359C23.8948 21.3944 21.4078 20.0482 19.6413 17.9641C17.8749 15.8801 16.9581 13.2103 17.0725 10.484C17.187 7.75758 18.3243 5.17357 20.2592 3.24404C22.1941 1.31452 24.7853 0.180297 27.5193 0.0661705C30.2533 -0.047956 32.9304 0.86634 35.0203 2.62786C37.1101 4.38938 38.4601 6.86955 38.8026 9.57685C39.1451 12.2842 38.4552 15.021 36.8696 17.2449L43.2063 23.5616C43.385 23.7276 43.5283 23.9279 43.6277 24.1504C43.7271 24.3728 43.7806 24.613 43.7849 24.8566C43.7892 25.1001 43.7443 25.342 43.6528 25.5678C43.5613 25.7937 43.4252 25.9988 43.2525 26.1711C43.0798 26.3433 42.874 26.4791 42.6476 26.5703C42.4211 26.6615 42.1785 26.7063 41.9343 26.702C41.6901 26.6977 41.4493 26.6444 41.2262 26.5453C41.0031 26.4461 40.8023 26.3032 40.6357 26.125L34.2991 19.8084ZM35.2521 10.938C35.2521 9.01382 34.4857 7.16849 33.1213 5.80792C31.7569 4.44736 29.9065 3.683 27.977 3.683C26.0475 3.683 24.197 4.44736 22.8327 5.80792C21.4683 7.16849 20.7018 9.01382 20.7018 10.938C20.7018 12.8621 21.4683 14.7074 22.8327 16.068C24.197 17.4286 26.0475 18.1929 27.977 18.1929C29.9065 18.1929 31.7569 17.4286 33.1213 16.068C34.4857 14.7074 35.2521 12.8621 35.2521 10.938ZM34.0396 22.9715V49.0144C34.0397 49.3482 33.9474 49.6756 33.7729 49.9605C33.5984 50.2453 33.3484 50.4766 33.0505 50.6289C32.7526 50.7812 32.4184 50.8485 32.0846 50.8235C31.7508 50.7985 31.4304 50.6821 31.1587 50.4872L17.0691 40.3762L2.97471 50.4848C2.70315 50.6796 2.38297 50.796 2.04938 50.8211C1.71579 50.8462 1.38172 50.779 1.08392 50.627C0.786121 50.475 0.536125 50.2441 0.361431 49.9596C0.186737 49.6751 0.0941135 49.348 0.09375 49.0144V12.7493C0.09375 10.6648 0.924112 8.66569 2.40216 7.19174C3.88022 5.71779 5.88488 4.88974 7.97517 4.88974H16.0942C15.5171 6.01667 15.0951 7.23551 14.8575 8.51722H7.97517C6.84963 8.51722 5.77019 8.9631 4.97432 9.75676C4.17844 10.5504 3.73133 11.6269 3.73133 12.7493V45.474L16.0045 36.6713C16.3139 36.4493 16.6855 36.3299 17.0667 36.3299C17.4479 36.3299 17.8194 36.4493 18.1289 36.6713L30.402 45.474V24.0211C31.6234 23.7972 32.8071 23.4032 33.9184 22.8506L34.0396 22.9715Z" fill="white"/>
</svg>
