<svg width="58" height="45" viewBox="0 0 58 45" fill="none" xmlns="http://www.w3.org/2000/svg">
<path d="M43.6626 9.29199L48.2159 17.9025L57.9541 19.0908L50.8083 25.5573L52.2375 35.1235L43.6626 29.742L35.0877 35.1235L36.5168 25.5573L29.3711 19.0908L39.3751 17.9025L43.6626 9.29199Z" fill="white"/>
<path d="M32.6896 44.9209H29.4995V36.968C29.497 34.8596 28.6559 32.8382 27.1609 31.3473C25.6658 29.8564 23.6388 29.0177 21.5244 29.0151H11.9542C9.83988 29.0177 7.81285 29.8564 6.31777 31.3473C4.82269 32.8382 3.98165 34.8596 3.97911 36.968V44.9209H0.789062V36.968C0.79244 34.0161 1.96985 31.1861 4.063 29.0988C6.15614 27.0115 8.99409 25.8374 11.9542 25.834H21.5244C24.4845 25.8374 27.3225 27.0115 29.4156 29.0988C31.5088 31.1861 32.6862 34.0161 32.6896 36.968V44.9209Z" fill="white"/>
<path d="M16.7394 3.56599C18.3167 3.56599 19.8586 4.03243 21.1701 4.90632C22.4816 5.78021 23.5038 7.02231 24.1074 8.47554C24.711 9.92877 24.869 11.5279 24.5613 13.0706C24.2535 14.6133 23.494 16.0304 22.3786 17.1427C21.2633 18.255 19.8423 19.0124 18.2953 19.3193C16.7482 19.6261 15.1447 19.4687 13.6874 18.8667C12.2302 18.2648 10.9846 17.2454 10.1083 15.9375C9.232 14.6296 8.76427 13.092 8.76427 11.519C8.76427 9.40976 9.6045 7.38687 11.1001 5.89538C12.5957 4.4039 14.6243 3.56599 16.7394 3.56599V3.56599ZM16.7394 0.384766C14.5311 0.384766 12.3725 1.03778 10.5364 2.26123C8.70025 3.48468 7.26919 5.22362 6.42412 7.25814C5.57906 9.29266 5.35795 11.5314 5.78876 13.6912C6.21957 15.8511 7.28295 17.835 8.84442 19.3922C10.4059 20.9493 12.3953 22.0098 14.5612 22.4394C16.727 22.869 18.9719 22.6485 21.0121 21.8058C23.0523 20.963 24.796 19.5359 26.0229 17.7049C27.2497 15.8739 27.9045 13.7212 27.9045 11.519C27.9045 8.56605 26.7282 5.734 24.6343 3.64592C22.5405 1.55784 19.7006 0.384766 16.7394 0.384766V0.384766Z" fill="white"/>
</svg>
