<svg width="31" height="30" viewBox="0 0 31 30" fill="none" xmlns="http://www.w3.org/2000/svg">
<path d="M15.8853 0C7.5914 0 0.84375 6.72911 0.84375 15.0002V21.2148C0.84375 22.7509 2.19298 24.0004 3.85206 24.0004H5.35622C5.75515 24.0004 6.13773 23.8424 6.41982 23.561C6.7019 23.2797 6.86038 22.8982 6.86038 22.5004V14.7857C6.86038 14.3879 6.7019 14.0064 6.41982 13.7251C6.13773 13.4438 5.75515 13.2857 5.35622 13.2857H3.99045C4.82676 7.48062 9.8356 3.00005 15.8853 3.00005C21.935 3.00005 26.9439 7.48062 27.7802 13.2857H26.4144C26.0155 13.2857 25.6329 13.4438 25.3508 13.7251C25.0687 14.0064 24.9103 14.3879 24.9103 14.7857V24.0004C24.9103 25.6549 23.561 27.0004 21.9019 27.0004H18.8936V25.5004H12.877V30.0005H21.9019C25.2201 30.0005 27.9186 27.3094 27.9186 24.0004C29.5777 24.0004 30.9269 22.7509 30.9269 21.2148V15.0002C30.9269 6.72911 24.1792 0 15.8853 0Z" fill="#C4C4C4"/>
</svg>
