<svg width="16" height="19" viewBox="0 0 16 19" fill="none" xmlns="http://www.w3.org/2000/svg">
<path d="M5.44608 0.00550394C5.34577 0.0206419 5.24997 0.0579975 5.16547 0.11492C5.16547 0.11492 4.29119 0.673225 3.35124 1.27712C2.4113 1.88031 1.36561 2.54523 1.12648 2.67989C1.11172 2.68639 1.0972 2.69341 1.08293 2.70094C0.214867 3.24451 0.03448 4.13247 0.00337889 4.63045C0.00130548 4.6536 0.00337889 4.67254 0.00337889 4.69708C-0.00422361 4.88365 0.00337889 5.00359 0.00337889 5.00359V14.1658C0.00337889 15.497 1.53286 16.1374 2.98425 16.1374C3.46804 16.1374 3.95184 16.0582 4.36652 15.9179C4.64298 15.7776 4.84133 15.497 4.84133 15.2165V7.85193C4.84133 6.23873 5.1869 5.48124 6.2236 4.84999C6.50006 4.70971 9.39868 2.67919 9.39868 2.67919C9.53691 2.53892 9.67929 2.25415 9.67929 2.04374V1.97781C9.67929 1.69725 9.54106 1.48263 9.33372 1.34235C9.12638 1.20207 8.84992 1.20207 8.64258 1.34235C8.57347 1.41249 4.35754 4.29309 3.45906 4.78406C2.56058 5.34517 1.72223 5.48053 1.51489 5.19998C1.45062 5.13475 1.39464 4.93485 1.38565 4.73987V4.71813V4.69568C1.38634 4.5049 1.43472 4.14579 1.81761 3.90662C2.20603 3.68709 3.17017 3.06215 4.10735 2.46036C4.50337 2.20576 4.55244 2.1784 4.86276 1.97781C4.90361 2.14915 5.00654 2.2986 5.15106 2.39641C5.29559 2.49421 5.47111 2.5332 5.64268 2.50561C5.81425 2.47802 5.96929 2.38588 6.07694 2.24752C6.18459 2.10916 6.23695 1.93474 6.2236 1.75897V0.706891C6.22438 0.606919 6.20408 0.507934 6.16408 0.416573C6.12407 0.325211 6.06529 0.243584 5.99165 0.177164C5.91802 0.110744 5.83125 0.0610657 5.73716 0.0314596C5.64306 0.00185359 5.54382 -0.00699606 5.44608 0.00550394ZM10.9752 2.46036C10.8653 2.47891 10.7614 2.52415 10.6724 2.59222C10.6724 2.59222 7.19327 4.96782 6.5906 5.37533C6.58329 5.38265 6.57615 5.39013 6.56917 5.39777C6.06879 5.77862 5.77229 6.23172 5.64029 6.64624C5.54698 6.94012 5.53316 7.18 5.53247 7.37007V7.58961C5.53147 7.61134 5.53147 7.6331 5.53247 7.65484V16.1374C5.53247 17.4701 7.04467 18.2416 8.42695 18.2416C9.04897 18.2416 9.61017 18.1055 10.0249 17.825C10.8542 17.334 14.8628 14.1651 14.8628 14.1651C15.0701 14.0248 15.2084 13.827 15.2084 13.6166V4.49859C15.2084 4.1479 15.0743 3.93748 14.7978 3.7972C14.5905 3.65693 14.2498 3.72286 14.0424 3.86314C12.9366 4.7048 9.95989 7.0811 9.26875 7.50193C8.30116 8.06304 7.38955 8.20332 7.04398 7.85263C6.90576 7.71235 6.91474 7.58049 6.91474 7.37007C6.91889 7.24943 6.93202 7.14563 6.95828 7.06286C6.99699 6.94082 7.07578 6.79073 7.36813 6.55927C7.38195 6.54805 7.37504 6.54875 7.38955 6.53753C7.88924 6.19875 9.41734 5.14176 10.414 4.4544C10.4704 4.60813 10.5782 4.7369 10.7185 4.81832C10.8589 4.89975 11.0229 4.92867 11.1821 4.90007C11.3413 4.87146 11.4855 4.78714 11.5898 4.66176C11.694 4.53638 11.7517 4.37788 11.7527 4.21383V3.16175C11.7535 3.06178 11.7332 2.96279 11.6932 2.87143C11.6532 2.78007 11.5944 2.69844 11.5207 2.63202C11.4471 2.5656 11.3603 2.51592 11.2662 2.48632C11.1722 2.45671 11.0729 2.44786 10.9752 2.46036ZM13.8261 7.58961V8.99238L10.3704 11.7096V10.3068L13.8261 7.58961Z" fill="#1207AB"/>
</svg>
