<svg width="36" height="37" viewBox="0 0 36 37" fill="none" xmlns="http://www.w3.org/2000/svg">
<path d="M17.9827 0.000843358C18.5911 0.000843358 19.1903 0.0402118 19.7476 0.132843C20.2965 0.20457 20.8381 0.323899 21.3662 0.489475C21.8956 0.649265 22.4135 0.848423 22.9313 1.09853C23.4353 1.33705 23.9531 1.62884 24.471 1.94611C25.3464 2.5019 26.208 2.95116 27.0858 3.31011C28.8138 3.99983 30.6411 4.41025 32.4988 4.5259C33.4417 4.59306 34.41 4.63243 35.4178 4.63243V13.8956C35.4178 15.6556 35.1926 17.323 34.7421 18.9116C34.3093 20.4776 33.6944 21.9877 32.9099 23.4112C32.1286 24.8327 31.2043 26.1712 30.1511 27.4059C29.0818 28.6687 27.9239 29.8543 26.6864 30.9537C25.4324 32.0564 24.1117 33.0811 22.7316 34.0221C21.3522 34.9762 19.9589 35.8632 18.5656 36.6691L18.0083 37.0002L17.4509 36.6691C16.0186 35.8421 14.6195 34.9591 13.257 34.0221C11.8693 33.0917 10.5479 32.0664 9.30232 30.9537C8.06549 29.8543 6.90844 28.6687 5.83991 27.4059C4.78956 26.1659 3.86106 24.8282 3.0672 23.4112C2.29607 21.9813 1.68178 20.4728 1.23498 18.9116C0.781614 17.2784 0.558091 15.5902 0.570828 13.8956V4.63243C1.58099 4.63243 2.54935 4.59306 3.49216 4.5259C4.42026 4.46161 5.34234 4.32926 6.25094 4.1299C7.14035 3.93074 8.02975 3.66674 8.90522 3.31011C9.81368 2.94448 10.6847 2.49235 11.5061 1.96C12.5279 1.29769 13.5636 0.809054 14.5853 0.48716C15.6858 0.150748 16.8319 -0.0133096 17.9827 0.000843358ZM33.0817 6.90885C31.3239 6.82379 29.5824 6.53072 27.8939 6.0358C26.2143 5.53617 24.6146 4.80088 23.1427 3.852C22.3792 3.35225 21.55 2.96025 20.6788 2.68716C19.8085 2.42486 18.9035 2.29526 17.9943 2.30274C17.0785 2.29683 16.1667 2.42638 15.289 2.68716C14.4164 2.95137 13.5884 3.34398 12.8321 3.852C11.3576 4.80606 9.7537 5.54457 8.06923 6.04506C6.42279 6.52211 4.69971 6.8139 2.89303 6.92043V13.9072C2.89303 15.4425 3.09274 16.9108 3.49216 18.3257C3.89907 19.7284 4.45979 21.082 5.16415 22.3621C5.87695 23.6556 6.71709 24.8751 7.67213 26.0025C8.64049 27.1396 9.67387 28.1979 10.7885 29.203C11.9032 30.2103 13.0713 31.1367 14.2927 31.9958C15.5258 32.8573 16.7612 33.6377 17.9943 34.351C19.257 33.618 20.488 32.8322 21.6843 31.9958C22.9139 31.1394 24.0881 30.2066 25.2001 29.203C26.3148 28.1979 27.3505 27.1396 28.3189 26.0025C29.274 24.8751 30.1142 23.6556 30.8268 22.3621C31.5281 21.0836 32.0805 19.7293 32.4733 18.3257C32.8848 16.889 33.0897 15.4013 33.0817 13.9072V6.90885Z" fill="#C4C4C4"/>
<path fill-rule="evenodd" clip-rule="evenodd" d="M26.6397 10.9057L25.6179 10.0303L24.6751 10.1113L14.5503 22.0332L11.1018 17.1236L10.1729 16.9662L9.09773 17.7327L8.9375 18.659L13.3706 24.972L13.8745 25.2499L14.9358 25.3147L15.4792 25.0785L26.707 11.8436L26.6397 10.9057Z" fill="#C4C4C4"/>
</svg>
