<svg width="41" height="41" viewBox="0 0 41 41" fill="none" xmlns="http://www.w3.org/2000/svg">
<path fill-rule="evenodd" clip-rule="evenodd" d="M0 0H35.3027V5.69399H33.0251V2.27759H2.27759V28.4699H26.6331V30.7475H0V0ZM34.1639 14.8044C35.07 14.8044 35.939 14.4444 36.5797 13.8037C37.2204 13.163 37.5803 12.2941 37.5803 11.388C37.5803 10.4819 37.2204 9.61292 36.5797 8.97222C35.939 8.33152 35.07 7.97158 34.1639 7.97158C33.2578 7.97158 32.3889 8.33152 31.7482 8.97222C31.1075 9.61292 30.7475 10.4819 30.7475 11.388C30.7475 12.2941 31.1075 13.163 31.7482 13.8037C32.3889 14.4444 33.2578 14.8044 34.1639 14.8044ZM36.4768 17.0933C37.9561 17.0933 39.1268 17.7584 39.8932 18.7856C40.6095 19.7479 40.9124 20.9379 40.9808 22.0369C41.0502 23.1518 40.8897 24.3202 40.5287 25.3622C40.187 26.3529 39.6096 27.3778 38.7191 28.0805V39.2885C38.7199 39.7177 38.5592 40.1315 38.2688 40.4475C37.9784 40.7635 37.5797 40.9587 37.152 40.9942C36.7243 41.0296 36.2989 40.9028 35.9605 40.6388C35.622 40.3749 35.3953 39.9933 35.3255 39.5698L33.8564 30.7475H33.5171L31.8567 39.6028C31.7779 40.0208 31.546 40.3942 31.2063 40.6502C30.8667 40.9063 30.4438 41.0263 30.0203 40.987C29.5968 40.9477 29.2032 40.7519 28.9165 40.4377C28.6297 40.1236 28.4705 39.7138 28.4699 39.2885V23.0413C28.2422 23.3882 28.0175 23.7371 27.7958 24.0878L27.7069 24.2279L27.6842 24.2644L27.6785 24.2746C27.525 24.521 27.3112 24.7243 27.0574 24.8652C26.8035 25.006 26.518 25.0799 26.2276 25.0797H20.5337C20.0806 25.0797 19.6461 24.8998 19.3258 24.5794C19.0054 24.2591 18.8255 23.8246 18.8255 23.3715C18.8255 22.9185 19.0054 22.484 19.3258 22.1637C19.6461 21.8433 20.0806 21.6633 20.5337 21.6633H25.2904C25.5671 21.2352 25.9316 20.6794 26.3142 20.1214C26.7128 19.5395 27.1523 18.9234 27.5441 18.4405C27.7343 18.2048 27.9472 17.9588 28.1613 17.7573C28.2661 17.6582 28.4119 17.5295 28.5895 17.4156C28.903 17.2098 29.269 17.0984 29.644 17.0945H36.4768V17.0933Z" fill="#C4C4C4"/>
</svg>
