<svg width="44" height="51" viewBox="0 0 44 51" fill="none" xmlns="http://www.w3.org/2000/svg">
<path d="M34.5051 19.8085C32.2811 21.3896 29.5443 22.0776 26.837 21.736C24.1297 21.3945 21.6495 20.0483 19.888 17.9642C18.1264 15.8802 17.2121 13.2104 17.3263 10.484C17.4404 7.75761 18.5746 5.17359 20.5042 3.24406C22.4337 1.31452 25.0177 0.180298 27.7441 0.0661705C30.4705 -0.0479565 33.1403 0.866344 35.2243 2.62787C37.3083 4.3894 38.6546 6.86959 38.9961 9.5769C39.3377 12.2842 38.6497 15.0211 37.0686 17.245L43.3877 23.5617C43.5658 23.7278 43.7088 23.928 43.8079 24.1505C43.907 24.373 43.9603 24.6131 43.9646 24.8567C43.9689 25.1002 43.9241 25.3421 43.8329 25.568C43.7417 25.7938 43.6059 25.9989 43.4337 26.1712C43.2615 26.3434 43.0563 26.4792 42.8305 26.5704C42.6046 26.6616 42.3627 26.7064 42.1192 26.7021C41.8757 26.6978 41.6355 26.6445 41.413 26.5454C41.1905 26.4463 40.9903 26.3033 40.8242 26.1251L34.5051 19.8085ZM35.4555 10.938C35.4555 9.01387 34.6912 7.16853 33.3306 5.80795C31.97 4.44738 30.1247 3.68301 28.2005 3.68301C26.2764 3.68301 24.431 4.44738 23.0705 5.80795C21.7099 7.16853 20.9455 9.01387 20.9455 10.938C20.9455 12.8622 21.7099 14.7075 23.0705 16.0681C24.431 17.4286 26.2764 18.193 28.2005 18.193C30.1247 18.193 31.97 17.4286 33.3306 16.0681C34.6912 14.7075 35.4555 12.8622 35.4555 10.938ZM34.2464 22.9716V49.0147C34.2464 49.3485 34.1544 49.6758 33.9804 49.9607C33.8063 50.2456 33.5571 50.4769 33.26 50.6291C32.9629 50.7814 32.6296 50.8488 32.2967 50.8238C31.9639 50.7988 31.6444 50.6824 31.3734 50.4874L17.3229 40.3764L3.26751 50.485C2.9967 50.6798 2.67741 50.7962 2.34474 50.8213C2.01208 50.8464 1.67894 50.7793 1.38196 50.6273C1.08498 50.4753 0.835681 50.2443 0.661471 49.9598C0.487261 49.6753 0.394894 49.3483 0.394531 49.0147V12.7493C0.394531 10.6649 1.22259 8.66574 2.69655 7.19178C4.17051 5.71782 6.16962 4.88976 8.25411 4.88976H16.3507C15.7751 6.0167 15.3543 7.23554 15.1173 8.51726H8.25411C7.13169 8.51726 6.05525 8.96314 5.26158 9.75681C4.46791 10.5505 4.02203 11.6269 4.02203 12.7493V45.4742L16.2612 36.6715C16.5698 36.4495 16.9403 36.3301 17.3204 36.3301C17.7006 36.3301 18.0711 36.4495 18.3797 36.6715L30.6189 45.4742V24.0212C31.8368 23.7973 33.0172 23.4033 34.1254 22.8507L34.2464 22.9716Z" fill="white"/>
</svg>
